<mxfile host="app.diagrams.net" modified="2023-07-28T02:03:14.167Z" agent="Mozilla/5.0 (Macintosh; Intel Mac OS X 10_15_7) AppleWebKit/537.36 (KHTML, like Gecko) Chrome/114.0.0.0 Safari/537.36" etag="HP2kgsTl_9eciwydq2cs" version="21.6.5" type="device">
  <diagram name="Page-1" id="aL041_9Xd48ZA2OLM0ke">
    <mxGraphModel dx="1654" dy="802" grid="1" gridSize="10" guides="1" tooltips="1" connect="1" arrows="1" fold="1" page="1" pageScale="1" pageWidth="1700" pageHeight="1100" math="0" shadow="0">
      <root>
        <mxCell id="0" />
        <mxCell id="1" parent="0" />
        <mxCell id="4EYzUDcDxxgRVxN5OdT7-35" style="edgeStyle=orthogonalEdgeStyle;rounded=0;orthogonalLoop=1;jettySize=auto;html=1;exitX=0.5;exitY=0;exitDx=0;exitDy=0;entryX=0.5;entryY=1;entryDx=0;entryDy=0;endArrow=none;endFill=0;" parent="1" source="4EYzUDcDxxgRVxN5OdT7-1" target="4EYzUDcDxxgRVxN5OdT7-29" edge="1">
          <mxGeometry relative="1" as="geometry" />
        </mxCell>
        <mxCell id="4EYzUDcDxxgRVxN5OdT7-37" style="edgeStyle=orthogonalEdgeStyle;rounded=0;orthogonalLoop=1;jettySize=auto;html=1;exitX=1;exitY=0.5;exitDx=0;exitDy=0;endArrow=classic;endFill=1;strokeWidth=1;" parent="1" source="4EYzUDcDxxgRVxN5OdT7-1" target="4EYzUDcDxxgRVxN5OdT7-25" edge="1">
          <mxGeometry relative="1" as="geometry" />
        </mxCell>
        <mxCell id="IEggNw0U-KU3ls9TK7Qj-30" style="edgeStyle=orthogonalEdgeStyle;rounded=0;orthogonalLoop=1;jettySize=auto;html=1;exitX=0.75;exitY=0;exitDx=0;exitDy=0;entryX=0.5;entryY=1;entryDx=0;entryDy=0;endArrow=classic;endFill=1;strokeWidth=1;" parent="1" source="4EYzUDcDxxgRVxN5OdT7-1" target="IEggNw0U-KU3ls9TK7Qj-25" edge="1">
          <mxGeometry relative="1" as="geometry" />
        </mxCell>
        <mxCell id="F42KiPgFk77LqARd_4Rh-7" style="edgeStyle=orthogonalEdgeStyle;rounded=0;orthogonalLoop=1;jettySize=auto;html=1;exitX=0.75;exitY=1;exitDx=0;exitDy=0;" parent="1" source="4EYzUDcDxxgRVxN5OdT7-1" edge="1">
          <mxGeometry relative="1" as="geometry">
            <mxPoint x="1040" y="590" as="targetPoint" />
          </mxGeometry>
        </mxCell>
        <mxCell id="4EYzUDcDxxgRVxN5OdT7-1" value="Content Creators" style="rounded=0;whiteSpace=wrap;html=1;fillColor=#b0e3e6;strokeColor=#0e8088;" parent="1" vertex="1">
          <mxGeometry x="720" y="460" width="120" height="60" as="geometry" />
        </mxCell>
        <mxCell id="4EYzUDcDxxgRVxN5OdT7-3" style="edgeStyle=orthogonalEdgeStyle;rounded=0;orthogonalLoop=1;jettySize=auto;html=1;exitX=1;exitY=0.5;exitDx=0;exitDy=0;endArrow=none;endFill=0;entryX=0.5;entryY=1;entryDx=0;entryDy=0;" parent="1" source="4EYzUDcDxxgRVxN5OdT7-2" target="4EYzUDcDxxgRVxN5OdT7-1" edge="1">
          <mxGeometry relative="1" as="geometry">
            <mxPoint x="780" y="540" as="targetPoint" />
          </mxGeometry>
        </mxCell>
        <mxCell id="4EYzUDcDxxgRVxN5OdT7-10" style="edgeStyle=orthogonalEdgeStyle;rounded=0;orthogonalLoop=1;jettySize=auto;html=1;exitX=0.5;exitY=0;exitDx=0;exitDy=0;entryX=0;entryY=0.25;entryDx=0;entryDy=0;endArrow=none;endFill=0;" parent="1" source="4EYzUDcDxxgRVxN5OdT7-4" target="4EYzUDcDxxgRVxN5OdT7-2" edge="1">
          <mxGeometry relative="1" as="geometry" />
        </mxCell>
        <mxCell id="F42KiPgFk77LqARd_4Rh-37" style="edgeStyle=orthogonalEdgeStyle;rounded=0;orthogonalLoop=1;jettySize=auto;html=1;exitX=0.5;exitY=1;exitDx=0;exitDy=0;entryX=0.5;entryY=0;entryDx=0;entryDy=0;endArrow=none;endFill=0;" parent="1" source="4EYzUDcDxxgRVxN5OdT7-4" target="F42KiPgFk77LqARd_4Rh-36" edge="1">
          <mxGeometry relative="1" as="geometry" />
        </mxCell>
        <mxCell id="4EYzUDcDxxgRVxN5OdT7-4" value="Youtubers" style="rounded=0;whiteSpace=wrap;html=1;fillColor=#b0e3e6;strokeColor=#0e8088;" parent="1" vertex="1">
          <mxGeometry x="590" y="680" width="120" height="60" as="geometry" />
        </mxCell>
        <mxCell id="4EYzUDcDxxgRVxN5OdT7-8" style="edgeStyle=orthogonalEdgeStyle;rounded=0;orthogonalLoop=1;jettySize=auto;html=1;exitX=0.5;exitY=0;exitDx=0;exitDy=0;entryX=0;entryY=0.5;entryDx=0;entryDy=0;endArrow=none;endFill=0;" parent="1" source="4EYzUDcDxxgRVxN5OdT7-5" target="4EYzUDcDxxgRVxN5OdT7-2" edge="1">
          <mxGeometry relative="1" as="geometry" />
        </mxCell>
        <mxCell id="F42KiPgFk77LqARd_4Rh-40" style="edgeStyle=orthogonalEdgeStyle;rounded=0;orthogonalLoop=1;jettySize=auto;html=1;exitX=0.5;exitY=1;exitDx=0;exitDy=0;entryX=0.5;entryY=0;entryDx=0;entryDy=0;endArrow=none;endFill=0;" parent="1" source="4EYzUDcDxxgRVxN5OdT7-5" target="F42KiPgFk77LqARd_4Rh-34" edge="1">
          <mxGeometry relative="1" as="geometry" />
        </mxCell>
        <mxCell id="4EYzUDcDxxgRVxN5OdT7-5" value="Musicians" style="rounded=0;whiteSpace=wrap;html=1;fillColor=#b0e3e6;strokeColor=#0e8088;" parent="1" vertex="1">
          <mxGeometry x="720" y="680" width="120" height="60" as="geometry" />
        </mxCell>
        <mxCell id="4EYzUDcDxxgRVxN5OdT7-9" style="edgeStyle=orthogonalEdgeStyle;rounded=0;orthogonalLoop=1;jettySize=auto;html=1;exitX=0.5;exitY=0;exitDx=0;exitDy=0;entryX=0;entryY=0.75;entryDx=0;entryDy=0;endArrow=none;endFill=0;" parent="1" source="4EYzUDcDxxgRVxN5OdT7-6" target="4EYzUDcDxxgRVxN5OdT7-2" edge="1">
          <mxGeometry relative="1" as="geometry" />
        </mxCell>
        <mxCell id="F42KiPgFk77LqARd_4Rh-39" style="edgeStyle=orthogonalEdgeStyle;rounded=0;orthogonalLoop=1;jettySize=auto;html=1;exitX=0.5;exitY=1;exitDx=0;exitDy=0;entryX=0.5;entryY=0;entryDx=0;entryDy=0;endArrow=none;endFill=0;" parent="1" source="4EYzUDcDxxgRVxN5OdT7-6" target="F42KiPgFk77LqARd_4Rh-35" edge="1">
          <mxGeometry relative="1" as="geometry" />
        </mxCell>
        <mxCell id="4EYzUDcDxxgRVxN5OdT7-6" value="Photographers" style="rounded=0;whiteSpace=wrap;html=1;fillColor=#b0e3e6;strokeColor=#0e8088;" parent="1" vertex="1">
          <mxGeometry x="850" y="680" width="120" height="60" as="geometry" />
        </mxCell>
        <mxCell id="4EYzUDcDxxgRVxN5OdT7-33" style="edgeStyle=orthogonalEdgeStyle;rounded=0;orthogonalLoop=1;jettySize=auto;html=1;exitX=1;exitY=0.5;exitDx=0;exitDy=0;entryX=0;entryY=0.5;entryDx=0;entryDy=0;endArrow=classic;endFill=1;strokeWidth=3;" parent="1" source="4EYzUDcDxxgRVxN5OdT7-13" target="4EYzUDcDxxgRVxN5OdT7-18" edge="1">
          <mxGeometry relative="1" as="geometry">
            <mxPoint x="530" y="490" as="targetPoint" />
          </mxGeometry>
        </mxCell>
        <mxCell id="F42KiPgFk77LqARd_4Rh-26" style="edgeStyle=orthogonalEdgeStyle;rounded=0;orthogonalLoop=1;jettySize=auto;html=1;exitX=0.5;exitY=1;exitDx=0;exitDy=0;endArrow=none;endFill=0;" parent="1" source="4EYzUDcDxxgRVxN5OdT7-13" edge="1">
          <mxGeometry relative="1" as="geometry">
            <mxPoint x="430" y="550" as="targetPoint" />
          </mxGeometry>
        </mxCell>
        <mxCell id="4EYzUDcDxxgRVxN5OdT7-13" value="Content" style="rounded=0;whiteSpace=wrap;html=1;strokeWidth=3;fillColor=#b0e3e6;strokeColor=#000000;" parent="1" vertex="1">
          <mxGeometry x="370" y="460" width="120" height="60" as="geometry" />
        </mxCell>
        <mxCell id="IEggNw0U-KU3ls9TK7Qj-71" style="edgeStyle=orthogonalEdgeStyle;rounded=0;orthogonalLoop=1;jettySize=auto;html=1;exitX=0.5;exitY=1;exitDx=0;exitDy=0;entryX=0.5;entryY=0;entryDx=0;entryDy=0;endArrow=none;endFill=0;" parent="1" source="4EYzUDcDxxgRVxN5OdT7-14" target="IEggNw0U-KU3ls9TK7Qj-68" edge="1">
          <mxGeometry relative="1" as="geometry" />
        </mxCell>
        <mxCell id="IEggNw0U-KU3ls9TK7Qj-73" style="edgeStyle=orthogonalEdgeStyle;rounded=0;orthogonalLoop=1;jettySize=auto;html=1;exitX=0.25;exitY=1;exitDx=0;exitDy=0;entryX=0.5;entryY=0;entryDx=0;entryDy=0;endArrow=none;endFill=0;" parent="1" source="4EYzUDcDxxgRVxN5OdT7-14" target="IEggNw0U-KU3ls9TK7Qj-67" edge="1">
          <mxGeometry relative="1" as="geometry" />
        </mxCell>
        <mxCell id="F42KiPgFk77LqARd_4Rh-41" style="edgeStyle=orthogonalEdgeStyle;rounded=0;orthogonalLoop=1;jettySize=auto;html=1;exitX=0.75;exitY=1;exitDx=0;exitDy=0;entryX=0.5;entryY=0;entryDx=0;entryDy=0;endArrow=none;endFill=0;" parent="1" source="4EYzUDcDxxgRVxN5OdT7-14" target="IEggNw0U-KU3ls9TK7Qj-69" edge="1">
          <mxGeometry relative="1" as="geometry">
            <Array as="points">
              <mxPoint x="1200" y="760" />
              <mxPoint x="1260" y="760" />
            </Array>
          </mxGeometry>
        </mxCell>
        <mxCell id="F42KiPgFk77LqARd_4Rh-88" style="edgeStyle=orthogonalEdgeStyle;rounded=0;orthogonalLoop=1;jettySize=auto;html=1;exitX=1;exitY=0.5;exitDx=0;exitDy=0;entryX=0;entryY=0.5;entryDx=0;entryDy=0;endArrow=none;endFill=0;" parent="1" source="4EYzUDcDxxgRVxN5OdT7-14" target="F42KiPgFk77LqARd_4Rh-86" edge="1">
          <mxGeometry relative="1" as="geometry" />
        </mxCell>
        <mxCell id="4EYzUDcDxxgRVxN5OdT7-14" value="Contracts" style="rounded=0;whiteSpace=wrap;html=1;fillColor=#b0e3e6;strokeColor=#0e8088;" parent="1" vertex="1">
          <mxGeometry x="1110" y="680" width="120" height="60" as="geometry" />
        </mxCell>
        <mxCell id="4EYzUDcDxxgRVxN5OdT7-15" value="Merchadise" style="whiteSpace=wrap;html=1;fillColor=#b0e3e6;strokeColor=#0e8088;" parent="1" vertex="1">
          <mxGeometry x="720" y="240" width="120" height="60" as="geometry" />
        </mxCell>
        <mxCell id="F42KiPgFk77LqARd_4Rh-62" style="edgeStyle=orthogonalEdgeStyle;rounded=0;orthogonalLoop=1;jettySize=auto;html=1;exitX=1;exitY=0.5;exitDx=0;exitDy=0;" parent="1" source="4EYzUDcDxxgRVxN5OdT7-16" edge="1">
          <mxGeometry relative="1" as="geometry">
            <mxPoint x="1510.1428571428573" y="535.2857142857143" as="targetPoint" />
          </mxGeometry>
        </mxCell>
        <mxCell id="4EYzUDcDxxgRVxN5OdT7-16" value="Sponsors" style="whiteSpace=wrap;html=1;fillColor=#b0e3e6;strokeColor=#0e8088;" parent="1" vertex="1">
          <mxGeometry x="1390" y="505" width="120" height="60" as="geometry" />
        </mxCell>
        <mxCell id="4EYzUDcDxxgRVxN5OdT7-17" value="Platform" style="whiteSpace=wrap;html=1;fillColor=#b0e3e6;strokeColor=#0e8088;" parent="1" vertex="1">
          <mxGeometry x="90" y="460" width="120" height="60" as="geometry" />
        </mxCell>
        <mxCell id="4EYzUDcDxxgRVxN5OdT7-34" style="edgeStyle=orthogonalEdgeStyle;rounded=0;orthogonalLoop=1;jettySize=auto;html=1;exitX=1;exitY=0.5;exitDx=0;exitDy=0;entryX=0;entryY=0.5;entryDx=0;entryDy=0;endArrow=none;endFill=0;" parent="1" source="4EYzUDcDxxgRVxN5OdT7-18" target="4EYzUDcDxxgRVxN5OdT7-1" edge="1">
          <mxGeometry relative="1" as="geometry" />
        </mxCell>
        <mxCell id="4EYzUDcDxxgRVxN5OdT7-18" value="Create" style="rhombus;whiteSpace=wrap;html=1;fillColor=#f8cecc;strokeColor=#b85450;" parent="1" vertex="1">
          <mxGeometry x="559.5" y="450" width="80" height="80" as="geometry" />
        </mxCell>
        <mxCell id="4EYzUDcDxxgRVxN5OdT7-19" value="Managers" style="rounded=0;whiteSpace=wrap;html=1;fillColor=#b0e3e6;strokeColor=#0e8088;" parent="1" vertex="1">
          <mxGeometry x="1000" y="240" width="120" height="60" as="geometry" />
        </mxCell>
        <mxCell id="4EYzUDcDxxgRVxN5OdT7-42" style="edgeStyle=orthogonalEdgeStyle;rounded=0;orthogonalLoop=1;jettySize=auto;html=1;exitX=0.5;exitY=1;exitDx=0;exitDy=0;entryX=0.5;entryY=0;entryDx=0;entryDy=0;endArrow=none;endFill=0;" parent="1" source="4EYzUDcDxxgRVxN5OdT7-21" target="4EYzUDcDxxgRVxN5OdT7-14" edge="1">
          <mxGeometry relative="1" as="geometry" />
        </mxCell>
        <mxCell id="4EYzUDcDxxgRVxN5OdT7-21" value="Offer" style="rhombus;whiteSpace=wrap;html=1;fillColor=#f8cecc;strokeColor=#b85450;" parent="1" vertex="1">
          <mxGeometry x="1130" y="560" width="80" height="80" as="geometry" />
        </mxCell>
        <mxCell id="4EYzUDcDxxgRVxN5OdT7-31" style="edgeStyle=orthogonalEdgeStyle;rounded=0;orthogonalLoop=1;jettySize=auto;html=1;exitX=0;exitY=0.5;exitDx=0;exitDy=0;entryX=1;entryY=0.5;entryDx=0;entryDy=0;endArrow=none;endFill=0;" parent="1" source="4EYzUDcDxxgRVxN5OdT7-22" target="4EYzUDcDxxgRVxN5OdT7-17" edge="1">
          <mxGeometry relative="1" as="geometry" />
        </mxCell>
        <mxCell id="4EYzUDcDxxgRVxN5OdT7-32" style="edgeStyle=orthogonalEdgeStyle;rounded=0;orthogonalLoop=1;jettySize=auto;html=1;exitX=1;exitY=0.5;exitDx=0;exitDy=0;entryX=0;entryY=0.5;entryDx=0;entryDy=0;endArrow=none;endFill=0;startArrow=classic;startFill=1;strokeWidth=3;fillColor=#b0e3e6;strokeColor=#000000;" parent="1" source="4EYzUDcDxxgRVxN5OdT7-22" target="4EYzUDcDxxgRVxN5OdT7-13" edge="1">
          <mxGeometry relative="1" as="geometry" />
        </mxCell>
        <mxCell id="IEggNw0U-KU3ls9TK7Qj-47" style="edgeStyle=orthogonalEdgeStyle;rounded=0;orthogonalLoop=1;jettySize=auto;html=1;exitX=0.5;exitY=0;exitDx=0;exitDy=0;entryX=0.5;entryY=1;entryDx=0;entryDy=0;endArrow=none;endFill=0;" parent="1" source="4EYzUDcDxxgRVxN5OdT7-22" target="IEggNw0U-KU3ls9TK7Qj-46" edge="1">
          <mxGeometry relative="1" as="geometry" />
        </mxCell>
        <mxCell id="4EYzUDcDxxgRVxN5OdT7-22" value="FoundOn" style="rhombus;whiteSpace=wrap;html=1;fillColor=#f8cecc;strokeColor=#000000;strokeWidth=3;" parent="1" vertex="1">
          <mxGeometry x="250" y="450" width="80" height="80" as="geometry" />
        </mxCell>
        <mxCell id="4EYzUDcDxxgRVxN5OdT7-41" style="edgeStyle=orthogonalEdgeStyle;rounded=0;orthogonalLoop=1;jettySize=auto;html=1;exitX=0.5;exitY=1;exitDx=0;exitDy=0;entryX=0.5;entryY=0;entryDx=0;entryDy=0;endArrow=none;endFill=0;strokeWidth=1;" parent="1" source="4EYzUDcDxxgRVxN5OdT7-24" target="4EYzUDcDxxgRVxN5OdT7-21" edge="1">
          <mxGeometry relative="1" as="geometry" />
        </mxCell>
        <mxCell id="IEggNw0U-KU3ls9TK7Qj-5" style="edgeStyle=orthogonalEdgeStyle;rounded=0;orthogonalLoop=1;jettySize=auto;html=1;exitX=1;exitY=0.75;exitDx=0;exitDy=0;entryX=0;entryY=0.5;entryDx=0;entryDy=0;endArrow=none;endFill=0;" parent="1" source="4EYzUDcDxxgRVxN5OdT7-24" target="4EYzUDcDxxgRVxN5OdT7-30" edge="1">
          <mxGeometry relative="1" as="geometry" />
        </mxCell>
        <mxCell id="4EYzUDcDxxgRVxN5OdT7-24" value="Agencies" style="rounded=0;whiteSpace=wrap;html=1;fillColor=#b0e3e6;strokeColor=#0e8088;" parent="1" vertex="1">
          <mxGeometry x="1110" y="460" width="120" height="60" as="geometry" />
        </mxCell>
        <mxCell id="4EYzUDcDxxgRVxN5OdT7-38" style="edgeStyle=orthogonalEdgeStyle;rounded=0;orthogonalLoop=1;jettySize=auto;html=1;exitX=1;exitY=0.5;exitDx=0;exitDy=0;entryX=0;entryY=0.5;entryDx=0;entryDy=0;endArrow=none;endFill=0;" parent="1" source="4EYzUDcDxxgRVxN5OdT7-25" target="4EYzUDcDxxgRVxN5OdT7-24" edge="1">
          <mxGeometry relative="1" as="geometry">
            <mxPoint x="1000" y="490" as="targetPoint" />
          </mxGeometry>
        </mxCell>
        <mxCell id="4EYzUDcDxxgRVxN5OdT7-25" value="Hires" style="rhombus;whiteSpace=wrap;html=1;fillColor=#f8cecc;strokeColor=#b85450;" parent="1" vertex="1">
          <mxGeometry x="940" y="450" width="80" height="80" as="geometry" />
        </mxCell>
        <mxCell id="4EYzUDcDxxgRVxN5OdT7-36" style="edgeStyle=orthogonalEdgeStyle;rounded=0;orthogonalLoop=1;jettySize=auto;html=1;exitX=0.5;exitY=0;exitDx=0;exitDy=0;entryX=0.5;entryY=1;entryDx=0;entryDy=0;endArrow=none;endFill=0;strokeWidth=3;startArrow=classic;startFill=1;" parent="1" source="4EYzUDcDxxgRVxN5OdT7-29" target="4EYzUDcDxxgRVxN5OdT7-15" edge="1">
          <mxGeometry relative="1" as="geometry" />
        </mxCell>
        <mxCell id="4EYzUDcDxxgRVxN5OdT7-29" value="Sell" style="rhombus;whiteSpace=wrap;html=1;fillColor=#f8cecc;strokeColor=#b85450;" parent="1" vertex="1">
          <mxGeometry x="740" y="340" width="80" height="80" as="geometry" />
        </mxCell>
        <mxCell id="4EYzUDcDxxgRVxN5OdT7-44" style="edgeStyle=orthogonalEdgeStyle;rounded=0;orthogonalLoop=1;jettySize=auto;html=1;exitX=1;exitY=0.5;exitDx=0;exitDy=0;entryX=0;entryY=0.5;entryDx=0;entryDy=0;endArrow=none;endFill=0;" parent="1" source="4EYzUDcDxxgRVxN5OdT7-30" target="4EYzUDcDxxgRVxN5OdT7-16" edge="1">
          <mxGeometry relative="1" as="geometry" />
        </mxCell>
        <mxCell id="4EYzUDcDxxgRVxN5OdT7-30" value="Negotiate" style="rhombus;whiteSpace=wrap;html=1;fillColor=#f8cecc;strokeColor=#b85450;" parent="1" vertex="1">
          <mxGeometry x="1270" y="495" width="80" height="80" as="geometry" />
        </mxCell>
        <mxCell id="MbYYiL1cmDoVWoelHE64-2" value="" style="group" parent="1" vertex="1" connectable="0">
          <mxGeometry x="740" y="580" width="180" height="60" as="geometry" />
        </mxCell>
        <mxCell id="4EYzUDcDxxgRVxN5OdT7-2" value="ISA" style="triangle;whiteSpace=wrap;html=1;direction=north;fillColor=#FF0000;strokeColor=#b85450;" parent="MbYYiL1cmDoVWoelHE64-2" vertex="1">
          <mxGeometry width="80" height="60" as="geometry" />
        </mxCell>
        <mxCell id="MbYYiL1cmDoVWoelHE64-1" value="Overlapping Partial" style="text;html=1;strokeColor=none;fillColor=none;align=center;verticalAlign=middle;whiteSpace=wrap;rounded=0;" parent="MbYYiL1cmDoVWoelHE64-2" vertex="1">
          <mxGeometry x="70" y="15" width="110" height="30" as="geometry" />
        </mxCell>
        <mxCell id="IEggNw0U-KU3ls9TK7Qj-65" style="edgeStyle=orthogonalEdgeStyle;rounded=0;orthogonalLoop=1;jettySize=auto;html=1;exitX=0.5;exitY=0;exitDx=0;exitDy=0;entryX=0.5;entryY=1;entryDx=0;entryDy=0;endArrow=none;endFill=0;" parent="1" source="IEggNw0U-KU3ls9TK7Qj-1" target="IEggNw0U-KU3ls9TK7Qj-21" edge="1">
          <mxGeometry relative="1" as="geometry" />
        </mxCell>
        <mxCell id="IEggNw0U-KU3ls9TK7Qj-1" value="Event" style="whiteSpace=wrap;html=1;fillColor=#b0e3e6;strokeColor=#0e8088;" parent="1" vertex="1">
          <mxGeometry x="1390" y="405" width="120" height="60" as="geometry" />
        </mxCell>
        <mxCell id="IEggNw0U-KU3ls9TK7Qj-2" style="edgeStyle=orthogonalEdgeStyle;rounded=0;orthogonalLoop=1;jettySize=auto;html=1;exitX=1;exitY=0.5;exitDx=0;exitDy=0;entryX=0;entryY=0.5;entryDx=0;entryDy=0;endArrow=none;endFill=0;strokeWidth=1;startArrow=none;startFill=0;" parent="1" source="IEggNw0U-KU3ls9TK7Qj-3" target="IEggNw0U-KU3ls9TK7Qj-1" edge="1">
          <mxGeometry relative="1" as="geometry" />
        </mxCell>
        <mxCell id="F42KiPgFk77LqARd_4Rh-69" style="edgeStyle=orthogonalEdgeStyle;rounded=0;orthogonalLoop=1;jettySize=auto;html=1;exitX=0;exitY=0.5;exitDx=0;exitDy=0;entryX=1;entryY=0.25;entryDx=0;entryDy=0;endArrow=none;endFill=0;" parent="1" source="IEggNw0U-KU3ls9TK7Qj-3" target="4EYzUDcDxxgRVxN5OdT7-24" edge="1">
          <mxGeometry relative="1" as="geometry" />
        </mxCell>
        <mxCell id="IEggNw0U-KU3ls9TK7Qj-3" value="Host" style="rhombus;whiteSpace=wrap;html=1;fillColor=#f8cecc;strokeColor=#b85450;" parent="1" vertex="1">
          <mxGeometry x="1270" y="395" width="80" height="80" as="geometry" />
        </mxCell>
        <mxCell id="gEFBz3ZnH01u2tYT95YP-14" style="edgeStyle=orthogonalEdgeStyle;rounded=0;orthogonalLoop=1;jettySize=auto;html=1;entryX=0;entryY=0.75;entryDx=0;entryDy=0;fontStyle=1;endArrow=none;endFill=0;" edge="1" parent="1" source="IEggNw0U-KU3ls9TK7Qj-6" target="4EYzUDcDxxgRVxN5OdT7-15">
          <mxGeometry relative="1" as="geometry">
            <Array as="points">
              <mxPoint x="630" y="285" />
            </Array>
          </mxGeometry>
        </mxCell>
        <mxCell id="IEggNw0U-KU3ls9TK7Qj-6" value="mType" style="ellipse;whiteSpace=wrap;html=1;fillColor=#dae8fc;strokeColor=#6c8ebf;" parent="1" vertex="1">
          <mxGeometry x="600" y="170" width="60" height="30" as="geometry" />
        </mxCell>
        <mxCell id="IEggNw0U-KU3ls9TK7Qj-35" style="edgeStyle=orthogonalEdgeStyle;rounded=0;orthogonalLoop=1;jettySize=auto;html=1;exitX=0.5;exitY=1;exitDx=0;exitDy=0;endArrow=none;endFill=0;entryX=0.5;entryY=0;entryDx=0;entryDy=0;" parent="1" source="IEggNw0U-KU3ls9TK7Qj-7" target="4EYzUDcDxxgRVxN5OdT7-15" edge="1">
          <mxGeometry relative="1" as="geometry">
            <mxPoint x="670" y="270" as="targetPoint" />
          </mxGeometry>
        </mxCell>
        <mxCell id="IEggNw0U-KU3ls9TK7Qj-7" value="&lt;u&gt;ItemNumber&lt;/u&gt;" style="ellipse;whiteSpace=wrap;html=1;fillColor=#dae8fc;strokeColor=#6c8ebf;" parent="1" vertex="1">
          <mxGeometry x="670" y="170" width="95" height="30" as="geometry" />
        </mxCell>
        <mxCell id="IEggNw0U-KU3ls9TK7Qj-38" style="edgeStyle=orthogonalEdgeStyle;rounded=0;orthogonalLoop=1;jettySize=auto;html=1;exitX=0.5;exitY=1;exitDx=0;exitDy=0;entryX=0.75;entryY=0;entryDx=0;entryDy=0;endArrow=none;endFill=0;" parent="1" source="IEggNw0U-KU3ls9TK7Qj-8" target="4EYzUDcDxxgRVxN5OdT7-15" edge="1">
          <mxGeometry relative="1" as="geometry" />
        </mxCell>
        <mxCell id="IEggNw0U-KU3ls9TK7Qj-8" value="Manufacturer" style="ellipse;whiteSpace=wrap;html=1;fillColor=#dae8fc;strokeColor=#6c8ebf;" parent="1" vertex="1">
          <mxGeometry x="775" y="170" width="90" height="30" as="geometry" />
        </mxCell>
        <mxCell id="IEggNw0U-KU3ls9TK7Qj-39" style="edgeStyle=orthogonalEdgeStyle;rounded=0;orthogonalLoop=1;jettySize=auto;html=1;exitX=0.5;exitY=1;exitDx=0;exitDy=0;entryX=1;entryY=0;entryDx=0;entryDy=0;endArrow=none;endFill=0;" parent="1" source="IEggNw0U-KU3ls9TK7Qj-9" target="4EYzUDcDxxgRVxN5OdT7-15" edge="1">
          <mxGeometry relative="1" as="geometry" />
        </mxCell>
        <mxCell id="IEggNw0U-KU3ls9TK7Qj-9" value="Price" style="ellipse;whiteSpace=wrap;html=1;fillColor=#dae8fc;strokeColor=#6c8ebf;" parent="1" vertex="1">
          <mxGeometry x="875" y="170" width="50" height="30" as="geometry" />
        </mxCell>
        <mxCell id="IEggNw0U-KU3ls9TK7Qj-63" style="edgeStyle=orthogonalEdgeStyle;rounded=0;orthogonalLoop=1;jettySize=auto;html=1;exitX=0.5;exitY=1;exitDx=0;exitDy=0;entryX=0.5;entryY=0;entryDx=0;entryDy=0;endArrow=none;endFill=0;" parent="1" source="IEggNw0U-KU3ls9TK7Qj-10" target="4EYzUDcDxxgRVxN5OdT7-13" edge="1">
          <mxGeometry relative="1" as="geometry" />
        </mxCell>
        <mxCell id="IEggNw0U-KU3ls9TK7Qj-10" value="Genre" style="ellipse;whiteSpace=wrap;html=1;fillColor=#dae8fc;strokeColor=#6c8ebf;" parent="1" vertex="1">
          <mxGeometry x="400" y="390" width="60" height="30" as="geometry" />
        </mxCell>
        <mxCell id="IEggNw0U-KU3ls9TK7Qj-64" style="edgeStyle=orthogonalEdgeStyle;rounded=0;orthogonalLoop=1;jettySize=auto;html=1;exitX=0.5;exitY=1;exitDx=0;exitDy=0;entryX=0.75;entryY=0;entryDx=0;entryDy=0;endArrow=none;endFill=0;" parent="1" source="IEggNw0U-KU3ls9TK7Qj-12" target="4EYzUDcDxxgRVxN5OdT7-13" edge="1">
          <mxGeometry relative="1" as="geometry" />
        </mxCell>
        <mxCell id="IEggNw0U-KU3ls9TK7Qj-12" value="Content Type" style="ellipse;whiteSpace=wrap;html=1;fillColor=#dae8fc;strokeColor=#6c8ebf;" parent="1" vertex="1">
          <mxGeometry x="470" y="390" width="80" height="30" as="geometry" />
        </mxCell>
        <mxCell id="F42KiPgFk77LqARd_4Rh-16" style="edgeStyle=orthogonalEdgeStyle;rounded=0;orthogonalLoop=1;jettySize=auto;html=1;exitX=0.5;exitY=1;exitDx=0;exitDy=0;entryX=0.5;entryY=0;entryDx=0;entryDy=0;endArrow=none;endFill=0;" parent="1" source="IEggNw0U-KU3ls9TK7Qj-14" target="4EYzUDcDxxgRVxN5OdT7-17" edge="1">
          <mxGeometry relative="1" as="geometry" />
        </mxCell>
        <mxCell id="IEggNw0U-KU3ls9TK7Qj-14" value="&lt;u&gt;Platform Name&lt;/u&gt;" style="ellipse;whiteSpace=wrap;html=1;fillColor=#dae8fc;strokeColor=#6c8ebf;" parent="1" vertex="1">
          <mxGeometry x="115" y="320" width="70" height="50" as="geometry" />
        </mxCell>
        <mxCell id="gEFBz3ZnH01u2tYT95YP-10" style="edgeStyle=orthogonalEdgeStyle;rounded=0;orthogonalLoop=1;jettySize=auto;html=1;entryX=0;entryY=0.75;entryDx=0;entryDy=0;endArrow=none;endFill=0;" edge="1" parent="1" source="IEggNw0U-KU3ls9TK7Qj-15" target="4EYzUDcDxxgRVxN5OdT7-1">
          <mxGeometry relative="1" as="geometry">
            <Array as="points">
              <mxPoint x="715" y="558" />
              <mxPoint x="715" y="505" />
            </Array>
          </mxGeometry>
        </mxCell>
        <mxCell id="IEggNw0U-KU3ls9TK7Qj-15" value="Content Creator Name" style="ellipse;whiteSpace=wrap;html=1;fillColor=#dae8fc;strokeColor=#6c8ebf;" parent="1" vertex="1">
          <mxGeometry x="590" y="530" width="115" height="50" as="geometry" />
        </mxCell>
        <mxCell id="F42KiPgFk77LqARd_4Rh-50" style="edgeStyle=orthogonalEdgeStyle;rounded=0;orthogonalLoop=1;jettySize=auto;html=1;exitX=0.5;exitY=0;exitDx=0;exitDy=0;entryX=0.25;entryY=1;entryDx=0;entryDy=0;endArrow=none;endFill=0;" parent="1" source="IEggNw0U-KU3ls9TK7Qj-18" target="4EYzUDcDxxgRVxN5OdT7-16" edge="1">
          <mxGeometry relative="1" as="geometry" />
        </mxCell>
        <mxCell id="IEggNw0U-KU3ls9TK7Qj-18" value="&lt;u&gt;Sponsors Name&lt;/u&gt;" style="ellipse;whiteSpace=wrap;html=1;fillColor=#dae8fc;strokeColor=#6c8ebf;" parent="1" vertex="1">
          <mxGeometry x="1350" y="592.5" width="70" height="55" as="geometry" />
        </mxCell>
        <mxCell id="F42KiPgFk77LqARd_4Rh-51" style="edgeStyle=orthogonalEdgeStyle;rounded=0;orthogonalLoop=1;jettySize=auto;html=1;exitX=0.5;exitY=0;exitDx=0;exitDy=0;entryX=0.5;entryY=1;entryDx=0;entryDy=0;endArrow=none;endFill=0;" parent="1" source="IEggNw0U-KU3ls9TK7Qj-19" target="4EYzUDcDxxgRVxN5OdT7-16" edge="1">
          <mxGeometry relative="1" as="geometry" />
        </mxCell>
        <mxCell id="IEggNw0U-KU3ls9TK7Qj-19" value="sService" style="ellipse;whiteSpace=wrap;html=1;fillColor=#dae8fc;strokeColor=#6c8ebf;" parent="1" vertex="1">
          <mxGeometry x="1425" y="610" width="50" height="30" as="geometry" />
        </mxCell>
        <mxCell id="IEggNw0U-KU3ls9TK7Qj-21" value="&lt;u&gt;eDate&lt;/u&gt;" style="ellipse;whiteSpace=wrap;html=1;fillColor=#dae8fc;strokeColor=#6c8ebf;" parent="1" vertex="1">
          <mxGeometry x="1425" y="340" width="50" height="30" as="geometry" />
        </mxCell>
        <mxCell id="gEFBz3ZnH01u2tYT95YP-12" style="edgeStyle=orthogonalEdgeStyle;rounded=0;orthogonalLoop=1;jettySize=auto;html=1;entryX=0.25;entryY=0;entryDx=0;entryDy=0;endArrow=none;endFill=0;" edge="1" parent="1" source="IEggNw0U-KU3ls9TK7Qj-22" target="4EYzUDcDxxgRVxN5OdT7-1">
          <mxGeometry relative="1" as="geometry">
            <Array as="points">
              <mxPoint x="750" y="405" />
            </Array>
          </mxGeometry>
        </mxCell>
        <mxCell id="IEggNw0U-KU3ls9TK7Qj-22" value="Handle" style="ellipse;whiteSpace=wrap;html=1;fillColor=#dae8fc;strokeColor=#6c8ebf;" parent="1" vertex="1">
          <mxGeometry x="670.5" y="390" width="60" height="30" as="geometry" />
        </mxCell>
        <mxCell id="F42KiPgFk77LqARd_4Rh-32" style="edgeStyle=orthogonalEdgeStyle;rounded=0;orthogonalLoop=1;jettySize=auto;html=1;exitX=0.5;exitY=1;exitDx=0;exitDy=0;entryX=0.25;entryY=0;entryDx=0;entryDy=0;endArrow=none;endFill=0;" parent="1" source="IEggNw0U-KU3ls9TK7Qj-24" target="4EYzUDcDxxgRVxN5OdT7-19" edge="1">
          <mxGeometry relative="1" as="geometry" />
        </mxCell>
        <mxCell id="IEggNw0U-KU3ls9TK7Qj-24" value="Manager Name" style="ellipse;whiteSpace=wrap;html=1;fillColor=#dae8fc;strokeColor=#6c8ebf;" parent="1" vertex="1">
          <mxGeometry x="1000" y="170" width="65" height="50" as="geometry" />
        </mxCell>
        <mxCell id="IEggNw0U-KU3ls9TK7Qj-31" style="edgeStyle=orthogonalEdgeStyle;rounded=0;orthogonalLoop=1;jettySize=auto;html=1;exitX=0.5;exitY=0;exitDx=0;exitDy=0;entryX=0;entryY=0.5;entryDx=0;entryDy=0;endArrow=none;endFill=0;startArrow=classic;startFill=1;" parent="1" source="IEggNw0U-KU3ls9TK7Qj-25" target="4EYzUDcDxxgRVxN5OdT7-19" edge="1">
          <mxGeometry relative="1" as="geometry" />
        </mxCell>
        <mxCell id="IEggNw0U-KU3ls9TK7Qj-25" value="Assigned" style="rhombus;whiteSpace=wrap;html=1;fillColor=#f8cecc;strokeColor=#b85450;" parent="1" vertex="1">
          <mxGeometry x="880" y="325" width="80" height="80" as="geometry" />
        </mxCell>
        <mxCell id="IEggNw0U-KU3ls9TK7Qj-46" value="URL_vlaue" style="ellipse;whiteSpace=wrap;html=1;fillColor=#dae8fc;strokeColor=#6c8ebf;" parent="1" vertex="1">
          <mxGeometry x="257.5" y="340" width="65" height="40" as="geometry" />
        </mxCell>
        <mxCell id="gEFBz3ZnH01u2tYT95YP-9" style="edgeStyle=orthogonalEdgeStyle;rounded=0;orthogonalLoop=1;jettySize=auto;html=1;entryX=0;entryY=0.25;entryDx=0;entryDy=0;endArrow=none;endFill=0;" edge="1" parent="1" source="IEggNw0U-KU3ls9TK7Qj-49" target="4EYzUDcDxxgRVxN5OdT7-1">
          <mxGeometry relative="1" as="geometry" />
        </mxCell>
        <mxCell id="IEggNw0U-KU3ls9TK7Qj-49" value="cStatus" style="ellipse;whiteSpace=wrap;html=1;fillColor=#dae8fc;strokeColor=#6c8ebf;" parent="1" vertex="1">
          <mxGeometry x="610" y="420" width="60.5" height="30" as="geometry" />
        </mxCell>
        <mxCell id="IEggNw0U-KU3ls9TK7Qj-62" style="edgeStyle=orthogonalEdgeStyle;rounded=0;orthogonalLoop=1;jettySize=auto;html=1;exitX=0.5;exitY=1;exitDx=0;exitDy=0;entryX=0.25;entryY=0;entryDx=0;entryDy=0;endArrow=none;endFill=0;" parent="1" source="IEggNw0U-KU3ls9TK7Qj-61" target="4EYzUDcDxxgRVxN5OdT7-13" edge="1">
          <mxGeometry relative="1" as="geometry" />
        </mxCell>
        <mxCell id="IEggNw0U-KU3ls9TK7Qj-61" value="Title" style="ellipse;whiteSpace=wrap;html=1;fillColor=#dae8fc;strokeColor=#6c8ebf;" parent="1" vertex="1">
          <mxGeometry x="330" y="390" width="60" height="30" as="geometry" />
        </mxCell>
        <mxCell id="IEggNw0U-KU3ls9TK7Qj-67" value="cDate" style="ellipse;whiteSpace=wrap;html=1;fillColor=#dae8fc;strokeColor=#6c8ebf;" parent="1" vertex="1">
          <mxGeometry x="1070" y="770" width="50" height="30" as="geometry" />
        </mxCell>
        <mxCell id="IEggNw0U-KU3ls9TK7Qj-68" value="Pay Rate" style="ellipse;whiteSpace=wrap;html=1;fillColor=#dae8fc;strokeColor=#6c8ebf;" parent="1" vertex="1">
          <mxGeometry x="1135" y="770" width="70" height="30" as="geometry" />
        </mxCell>
        <mxCell id="IEggNw0U-KU3ls9TK7Qj-69" value="Duration" style="ellipse;whiteSpace=wrap;html=1;fillColor=#dae8fc;strokeColor=#6c8ebf;" parent="1" vertex="1">
          <mxGeometry x="1220" y="770" width="80" height="30" as="geometry" />
        </mxCell>
        <mxCell id="F42KiPgFk77LqARd_4Rh-9" style="edgeStyle=orthogonalEdgeStyle;rounded=0;orthogonalLoop=1;jettySize=auto;html=1;exitX=0.5;exitY=1;exitDx=0;exitDy=0;entryX=0;entryY=0.5;entryDx=0;entryDy=0;endArrow=none;endFill=0;" parent="1" source="F42KiPgFk77LqARd_4Rh-8" target="4EYzUDcDxxgRVxN5OdT7-14" edge="1">
          <mxGeometry relative="1" as="geometry" />
        </mxCell>
        <mxCell id="F42KiPgFk77LqARd_4Rh-8" value="Accept" style="rhombus;whiteSpace=wrap;html=1;fillColor=#f8cecc;strokeColor=#b85450;" parent="1" vertex="1">
          <mxGeometry x="1000" y="590" width="80" height="80" as="geometry" />
        </mxCell>
        <mxCell id="F42KiPgFk77LqARd_4Rh-17" style="edgeStyle=orthogonalEdgeStyle;rounded=0;orthogonalLoop=1;jettySize=auto;html=1;exitX=0.5;exitY=1;exitDx=0;exitDy=0;entryX=0.75;entryY=0;entryDx=0;entryDy=0;endArrow=none;endFill=0;" parent="1" source="F42KiPgFk77LqARd_4Rh-10" target="4EYzUDcDxxgRVxN5OdT7-17" edge="1">
          <mxGeometry relative="1" as="geometry" />
        </mxCell>
        <mxCell id="F42KiPgFk77LqARd_4Rh-10" value="&lt;u&gt;Platform Founder&lt;/u&gt;" style="ellipse;whiteSpace=wrap;html=1;fillColor=#dae8fc;strokeColor=#6c8ebf;" parent="1" vertex="1">
          <mxGeometry x="170" y="370" width="85" height="50" as="geometry" />
        </mxCell>
        <mxCell id="F42KiPgFk77LqARd_4Rh-15" style="edgeStyle=orthogonalEdgeStyle;rounded=0;orthogonalLoop=1;jettySize=auto;html=1;exitX=0.5;exitY=1;exitDx=0;exitDy=0;entryX=0.25;entryY=0;entryDx=0;entryDy=0;endArrow=none;endFill=0;" parent="1" source="F42KiPgFk77LqARd_4Rh-13" target="4EYzUDcDxxgRVxN5OdT7-17" edge="1">
          <mxGeometry relative="1" as="geometry" />
        </mxCell>
        <mxCell id="F42KiPgFk77LqARd_4Rh-13" value="Platform Type" style="ellipse;whiteSpace=wrap;html=1;fillColor=#dae8fc;strokeColor=#6c8ebf;" parent="1" vertex="1">
          <mxGeometry x="40" y="380" width="100" height="30" as="geometry" />
        </mxCell>
        <mxCell id="F42KiPgFk77LqARd_4Rh-20" value="" style="endArrow=none;dashed=1;html=1;rounded=0;" parent="1" edge="1">
          <mxGeometry width="50" height="50" relative="1" as="geometry">
            <mxPoint x="340" y="412" as="sourcePoint" />
            <mxPoint x="380" y="412" as="targetPoint" />
          </mxGeometry>
        </mxCell>
        <mxCell id="F42KiPgFk77LqARd_4Rh-30" style="edgeStyle=orthogonalEdgeStyle;rounded=0;orthogonalLoop=1;jettySize=auto;html=1;exitX=1;exitY=0.5;exitDx=0;exitDy=0;entryX=0.083;entryY=1;entryDx=0;entryDy=0;entryPerimeter=0;endArrow=none;endFill=0;" parent="1" source="F42KiPgFk77LqARd_4Rh-28" target="4EYzUDcDxxgRVxN5OdT7-1" edge="1">
          <mxGeometry relative="1" as="geometry" />
        </mxCell>
        <mxCell id="F42KiPgFk77LqARd_4Rh-28" value="Content Creator Contact" style="ellipse;whiteSpace=wrap;html=1;fontStyle=4;fillColor=#dae8fc;strokeColor=#6c8ebf;" parent="1" vertex="1">
          <mxGeometry x="591" y="595" width="119" height="50" as="geometry" />
        </mxCell>
        <mxCell id="F42KiPgFk77LqARd_4Rh-33" style="edgeStyle=orthogonalEdgeStyle;rounded=0;orthogonalLoop=1;jettySize=auto;html=1;exitX=0.5;exitY=1;exitDx=0;exitDy=0;entryX=0.75;entryY=0;entryDx=0;entryDy=0;endArrow=none;endFill=0;" parent="1" source="F42KiPgFk77LqARd_4Rh-31" target="4EYzUDcDxxgRVxN5OdT7-19" edge="1">
          <mxGeometry relative="1" as="geometry" />
        </mxCell>
        <mxCell id="F42KiPgFk77LqARd_4Rh-31" value="Manager Contact" style="ellipse;whiteSpace=wrap;html=1;fontStyle=4;fillColor=#dae8fc;strokeColor=#6c8ebf;" parent="1" vertex="1">
          <mxGeometry x="1090" y="170" width="110" height="40" as="geometry" />
        </mxCell>
        <mxCell id="F42KiPgFk77LqARd_4Rh-34" value="Instrument" style="ellipse;whiteSpace=wrap;html=1;fillColor=#dae8fc;strokeColor=#6c8ebf;" parent="1" vertex="1">
          <mxGeometry x="740" y="770" width="80" height="30" as="geometry" />
        </mxCell>
        <mxCell id="F42KiPgFk77LqARd_4Rh-35" value="Camera" style="ellipse;whiteSpace=wrap;html=1;fillColor=#dae8fc;strokeColor=#6c8ebf;" parent="1" vertex="1">
          <mxGeometry x="870" y="770" width="80" height="30" as="geometry" />
        </mxCell>
        <mxCell id="F42KiPgFk77LqARd_4Rh-36" value="Subscriber Count" style="ellipse;whiteSpace=wrap;html=1;fillColor=#dae8fc;strokeColor=#6c8ebf;" parent="1" vertex="1">
          <mxGeometry x="590" y="770" width="120" height="30" as="geometry" />
        </mxCell>
        <mxCell id="F42KiPgFk77LqARd_4Rh-44" style="edgeStyle=orthogonalEdgeStyle;rounded=0;orthogonalLoop=1;jettySize=auto;html=1;exitX=0.5;exitY=1;exitDx=0;exitDy=0;entryX=0.25;entryY=0;entryDx=0;entryDy=0;endArrow=none;endFill=0;" parent="1" source="F42KiPgFk77LqARd_4Rh-42" target="IEggNw0U-KU3ls9TK7Qj-1" edge="1">
          <mxGeometry relative="1" as="geometry" />
        </mxCell>
        <mxCell id="F42KiPgFk77LqARd_4Rh-42" value="&lt;u&gt;Event Name&lt;/u&gt;" style="ellipse;whiteSpace=wrap;html=1;fillColor=#dae8fc;strokeColor=#6c8ebf;" parent="1" vertex="1">
          <mxGeometry x="1360" y="330" width="60" height="40" as="geometry" />
        </mxCell>
        <mxCell id="F42KiPgFk77LqARd_4Rh-45" style="edgeStyle=orthogonalEdgeStyle;rounded=0;orthogonalLoop=1;jettySize=auto;html=1;exitX=0.5;exitY=1;exitDx=0;exitDy=0;entryX=0.75;entryY=0;entryDx=0;entryDy=0;endArrow=none;endFill=0;" parent="1" source="F42KiPgFk77LqARd_4Rh-43" target="IEggNw0U-KU3ls9TK7Qj-1" edge="1">
          <mxGeometry relative="1" as="geometry" />
        </mxCell>
        <mxCell id="F42KiPgFk77LqARd_4Rh-43" value="Event Type" style="ellipse;whiteSpace=wrap;html=1;fillColor=#dae8fc;strokeColor=#6c8ebf;" parent="1" vertex="1">
          <mxGeometry x="1480" y="330" width="60" height="40" as="geometry" />
        </mxCell>
        <mxCell id="F42KiPgFk77LqARd_4Rh-48" style="edgeStyle=orthogonalEdgeStyle;rounded=0;orthogonalLoop=1;jettySize=auto;html=1;exitX=1;exitY=0.5;exitDx=0;exitDy=0;entryX=1;entryY=0.5;entryDx=0;entryDy=0;endArrow=none;endFill=0;" parent="1" source="F42KiPgFk77LqARd_4Rh-46" target="IEggNw0U-KU3ls9TK7Qj-1" edge="1">
          <mxGeometry relative="1" as="geometry">
            <Array as="points">
              <mxPoint x="1570" y="310" />
              <mxPoint x="1570" y="435" />
            </Array>
          </mxGeometry>
        </mxCell>
        <mxCell id="F42KiPgFk77LqARd_4Rh-46" value="Participant Count" style="ellipse;whiteSpace=wrap;html=1;fontStyle=0;align=center;fillColor=#dae8fc;strokeColor=#6c8ebf;" parent="1" vertex="1">
          <mxGeometry x="1385" y="295" width="120" height="30" as="geometry" />
        </mxCell>
        <mxCell id="F42KiPgFk77LqARd_4Rh-52" style="edgeStyle=orthogonalEdgeStyle;rounded=0;orthogonalLoop=1;jettySize=auto;html=1;exitX=0.5;exitY=0;exitDx=0;exitDy=0;entryX=0.75;entryY=1;entryDx=0;entryDy=0;endArrow=none;endFill=0;" parent="1" source="F42KiPgFk77LqARd_4Rh-49" target="4EYzUDcDxxgRVxN5OdT7-16" edge="1">
          <mxGeometry relative="1" as="geometry" />
        </mxCell>
        <mxCell id="F42KiPgFk77LqARd_4Rh-49" value="&lt;u&gt;Company Name&lt;/u&gt;" style="ellipse;whiteSpace=wrap;html=1;fillColor=#dae8fc;strokeColor=#6c8ebf;" parent="1" vertex="1">
          <mxGeometry x="1485" y="595" width="85" height="45" as="geometry" />
        </mxCell>
        <mxCell id="F42KiPgFk77LqARd_4Rh-71" style="edgeStyle=orthogonalEdgeStyle;rounded=0;orthogonalLoop=1;jettySize=auto;html=1;exitX=1;exitY=0.5;exitDx=0;exitDy=0;entryX=0.25;entryY=0;entryDx=0;entryDy=0;endArrow=none;endFill=0;" parent="1" source="F42KiPgFk77LqARd_4Rh-63" target="4EYzUDcDxxgRVxN5OdT7-24" edge="1">
          <mxGeometry relative="1" as="geometry">
            <Array as="points">
              <mxPoint x="1090" y="390" />
              <mxPoint x="1140" y="390" />
            </Array>
          </mxGeometry>
        </mxCell>
        <mxCell id="F42KiPgFk77LqARd_4Rh-63" value="&lt;u&gt;Agency Name&lt;/u&gt;" style="ellipse;whiteSpace=wrap;html=1;fillColor=#dae8fc;strokeColor=#6c8ebf;" parent="1" vertex="1">
          <mxGeometry x="1040" y="360" width="70" height="50" as="geometry" />
        </mxCell>
        <mxCell id="F42KiPgFk77LqARd_4Rh-72" style="edgeStyle=orthogonalEdgeStyle;rounded=0;orthogonalLoop=1;jettySize=auto;html=1;exitX=0.5;exitY=1;exitDx=0;exitDy=0;endArrow=none;endFill=0;" parent="1" source="F42KiPgFk77LqARd_4Rh-65" edge="1">
          <mxGeometry relative="1" as="geometry">
            <mxPoint x="1160" y="460" as="targetPoint" />
          </mxGeometry>
        </mxCell>
        <mxCell id="F42KiPgFk77LqARd_4Rh-65" value="&lt;u style=&quot;border-color: var(--border-color);&quot;&gt;Agency Founder&lt;/u&gt;" style="ellipse;whiteSpace=wrap;html=1;fillColor=#dae8fc;strokeColor=#6c8ebf;" parent="1" vertex="1">
          <mxGeometry x="1120" y="320" width="80" height="40" as="geometry" />
        </mxCell>
        <mxCell id="F42KiPgFk77LqARd_4Rh-73" style="edgeStyle=orthogonalEdgeStyle;rounded=0;orthogonalLoop=1;jettySize=auto;html=1;exitX=0.5;exitY=1;exitDx=0;exitDy=0;entryX=0.75;entryY=0;entryDx=0;entryDy=0;endArrow=none;endFill=0;" parent="1" source="F42KiPgFk77LqARd_4Rh-66" target="4EYzUDcDxxgRVxN5OdT7-24" edge="1">
          <mxGeometry relative="1" as="geometry" />
        </mxCell>
        <mxCell id="F42KiPgFk77LqARd_4Rh-66" value="Employee Count" style="ellipse;whiteSpace=wrap;html=1;fillColor=#dae8fc;strokeColor=#6c8ebf;" parent="1" vertex="1">
          <mxGeometry x="1180" y="380" width="110" height="30" as="geometry" />
        </mxCell>
        <mxCell id="F42KiPgFk77LqARd_4Rh-70" style="edgeStyle=orthogonalEdgeStyle;rounded=0;orthogonalLoop=1;jettySize=auto;html=1;entryX=0;entryY=0;entryDx=0;entryDy=0;endArrow=none;endFill=0;exitX=0.5;exitY=1;exitDx=0;exitDy=0;" parent="1" source="F42KiPgFk77LqARd_4Rh-67" target="4EYzUDcDxxgRVxN5OdT7-24" edge="1">
          <mxGeometry relative="1" as="geometry">
            <Array as="points">
              <mxPoint x="1055" y="430" />
              <mxPoint x="1110" y="430" />
            </Array>
            <mxPoint x="1020" y="430" as="sourcePoint" />
          </mxGeometry>
        </mxCell>
        <mxCell id="F42KiPgFk77LqARd_4Rh-67" value="Location" style="ellipse;whiteSpace=wrap;html=1;fillColor=#dae8fc;strokeColor=#6c8ebf;" parent="1" vertex="1">
          <mxGeometry x="1020" y="445" width="70" height="30" as="geometry" />
        </mxCell>
        <mxCell id="F42KiPgFk77LqARd_4Rh-78" value="" style="group" parent="1" vertex="1" connectable="0">
          <mxGeometry x="400" y="550" width="60" height="30" as="geometry" />
        </mxCell>
        <mxCell id="F42KiPgFk77LqARd_4Rh-76" value="Content ID" style="ellipse;whiteSpace=wrap;html=1;fillColor=#dae8fc;strokeColor=#6c8ebf;" parent="F42KiPgFk77LqARd_4Rh-78" vertex="1">
          <mxGeometry y="-10" width="60" height="40" as="geometry" />
        </mxCell>
        <mxCell id="F42KiPgFk77LqARd_4Rh-77" value="" style="endArrow=none;dashed=1;html=1;rounded=0;" parent="F42KiPgFk77LqARd_4Rh-78" edge="1">
          <mxGeometry width="50" height="50" relative="1" as="geometry">
            <mxPoint x="10" y="22" as="sourcePoint" />
            <mxPoint x="50" y="22" as="targetPoint" />
          </mxGeometry>
        </mxCell>
        <mxCell id="F42KiPgFk77LqARd_4Rh-85" value="" style="group;fontStyle=4" parent="1" vertex="1" connectable="0">
          <mxGeometry x="1270" y="695" width="90" height="30" as="geometry" />
        </mxCell>
        <mxCell id="F42KiPgFk77LqARd_4Rh-86" value="&lt;u&gt;Contracts ID&lt;/u&gt;" style="ellipse;whiteSpace=wrap;html=1;fillColor=#dae8fc;strokeColor=#6c8ebf;" parent="F42KiPgFk77LqARd_4Rh-85" vertex="1">
          <mxGeometry x="-1" y="-10" width="81" height="40" as="geometry" />
        </mxCell>
        <mxCell id="gEFBz3ZnH01u2tYT95YP-6" value="Industry&amp;nbsp;&lt;br&gt;Experience" style="ellipse;whiteSpace=wrap;html=1;fillColor=#dae8fc;strokeColor=#6c8ebf;" vertex="1" parent="1">
          <mxGeometry x="1165" y="245" width="85" height="50" as="geometry" />
        </mxCell>
        <mxCell id="gEFBz3ZnH01u2tYT95YP-7" style="edgeStyle=orthogonalEdgeStyle;rounded=0;orthogonalLoop=1;jettySize=auto;html=1;exitX=0;exitY=0.5;exitDx=0;exitDy=0;entryX=1;entryY=0.5;entryDx=0;entryDy=0;endArrow=none;endFill=0;" edge="1" parent="1" source="gEFBz3ZnH01u2tYT95YP-6" target="4EYzUDcDxxgRVxN5OdT7-19">
          <mxGeometry relative="1" as="geometry">
            <mxPoint x="1043" y="230" as="sourcePoint" />
            <mxPoint x="1040" y="250" as="targetPoint" />
          </mxGeometry>
        </mxCell>
      </root>
    </mxGraphModel>
  </diagram>
</mxfile>
